# xmcd
#
# Track frame offsets:
# 150
# 13379
# 31012
# 48280
# 62003
# 75942
# 89359
# 102156
# 119104
# 136611
# 149769
# 165469
# 177991
# 189731
# 207251
# 223978
#
# Disc length: 3186 seconds
#
#
# Revision: 0
# Processed by: cddbd v1.5.2PL0 Copyright (c) Steve Scherf et al.
# Submitted via: FreeRIP 2.95 
#
DISCID=e40c7010
DTITLE=Duo Esperança - Casal Feliz
DYEAR=1900
DGENRE=Sertanejo
TTITLE0=Casal Feliz
TTITLE1=É Bom Ter Família
TTITLE2=Aquarela do Amanhecer
TTITLE3=Quem Ama Sente Saudade
TTITLE4=Nossa Noite
TTITLE5=Colcha de Cetim
TTITLE6=Tu Sempre Tu
TTITLE7=Casinha Branca
TTITLE8=Tulha Velha
TTITLE9=Menina de Tranças Loiras
TTITLE10=O Seu Adeus
TTITLE11=Rainha do Campo
TTITLE12=O Varal
TTITLE13=Ave Maria do Sertão
TTITLE14=Você pra Mim é Tudo
TTITLE15=La Paloma
EXTD=Produção: Dino Franco \nContatos: xx1832657215 xx1897941788\nwww.duoesperanca.com.br\nParticipação Especial: Padre Antonio Maria e Dino Franco\nwww.bgkeditora.com.r
EXTT0=
EXTT1=
EXTT2=
EXTT3=
EXTT4=
EXTT5=
EXTT6=
EXTT7=
EXTT8=
EXTT9=
EXTT10=
EXTT11=
EXTT12=
EXTT13=
EXTT14=
EXTT15=
PLAYORDER=
